/* XPM */
static char *Brick_148[] = {
/* columns rows colors chars-per-pixel */
"128 128 8 1 ",
"  c #330303",
". c #070909",
"X c #500505",
"o c #6F1717",
"O c #6A0808",
"+ c #4B1818",
"@ c #812828",
"# c #961313",
/* pixels */
"....+..........+.......+........................+......+........+...+.........+...............+.......+.+.......+....+..........",
". ++ +             ++        X++. +X  +o+@o  X++   +  X  @+ +  .+ X@  + + X+   + +   ++ + +  ++ .  +  +     +++ + +          + +",
". ###O#o##o#######O#O#O#O######o. ###OO###O#####O##o#O#####O###o. #############oO#OO#####O##O##o.+##O#O##O##O#@#O#OXOO##OO##OO#O",
". #XoooO o@oXOoOXoXOOoOOooXoXo .. O XoOoX.    O oo @ O XXXXXOoo .@# +o OXXO o@@OXOXXooOOO@@@Xoo.. #XXXoOXoXOOOXXOo oO@ooXXo@X@Xo",
".+#XOo XXO  oX+.@++ @X@oXOo X X+. #OXo XX   XXX oooo@ooOOXXX   +. OX oXoOXOO o X XXXX+X X@oo    . #@XoOoOXXO  o@XX X@XOXo@  O@@X",
". O+ XOo @XOX oXXO OO @ X OX @O.. #.oOoO XXXXOoXXO O@XX X oooOo.. # XXXX   o  XoXOXX+X XXooX  X+.@#XOXX OoX oX  X oXOXX o@OXoo X",
".+OXXOXXo#O XXoX@OX@XX+oOOX@X@o . OX OXX@oXX@#@@XXo oX@XOOOX  @..+# o O   XoX+@ oX oXo#@X@OOX o+.+#XXXX@@X  o@ oXoXoX o X@@XOOXo",
". #XXXooO XXOOX XoXOXoX @oXX+X .. #Xo@Ooo .X@oXoOoXXX  X+XXXXOO+.+#O O@ooOXOO@o  X OO O@XOXOXOo+.+OOoXXXo  X@ooOXOXX OO oOO o@oO",
".+OO oOOXOoX@oX+ Oo@+XooOOX+ OX.. #@XO@ooXo+oX.@oXXX OoXo XOoXo . # oO@Oo@  oXo Xo X@XOXXXXo@@X+.+# XX@oXXOOOo@O XXXo  XX ooXoXX",
".  XX OX X@ooOOXX#o  O@oo XXOOO . #X  o XXoX@X o@OXOXO OoXX@@oX .+OO@@ Ooo.X Xo X@@XOooXX O XOo . #XOO@XOOX@ oo +OXXOXXXoXXoX X ",
". #XoX @X@Xo X OoOoo X oo   oXo.. O.XXXoX@X +XXoXXXOo OOO oO@@  .X#o@OXOXOXoOXXOX@oO o oXo@@@+X .+O X @X @XoXX  oXXO@@oOX ooXXOX",
".+#ooOXOOoOX o Oo o@oooO@X  @ X . OoX XXXXXooXXO   +o OoooX OXX.. # OX  Xo@XOXXXX oo@X@OooOXXOo.. O+@OXO X @ ooX@XOOo@oO O@@oXO ",
".+#@ooooo  XX+oOX OoOX+oXX OOXO+.+#OOOXO@oX OXoXo+ Xo  X@XOoXXO.. X XX X oOX@oXoX@O  oOoXX X XX .+# Oo@X.XOXoXXXO X XXX o @oXXOO",
"++OOoo  X @OO@o  oo XXX@O@XXXOO+. #X oXoXO oo+@ooXoXXXX@@OXXooX+.X#oXO@ oX X X oo XOoXoOX XXX@O . OXoOXX XXXOXX++ XXOXXO oX o  o",
".+#X X Xo@O X o oXooOo O@@  oOX ..XXoXoO@OXX+oXO OX O o@@oooX+X . # ooOXXX X@oXXXX XXOO  oXXOXX .+# X+XXoo+XoX + X#X@o@Oo X X@O.",
".+O .   + ++  . ++ ++.    . +.....++  . ....+ .+  .+   +. .. +.+..++  +.. ++ . +... ..   ..+.+ ..+O +. +.+..+ +  o+  +   .  +@+.",
"..................................+.............................................................................................",
"@+   + ++  +o  ... + ++   +++ .++X   @+     +@ +.+   @  +++   +   ++ + +++      . ++  +++++++ X ++   +++  + + + .  .++++ +o X+++",
"##O#O####OO####X.@##OX##OOO####O####O##O##OO##OX.+OO##O##O##O##OOOO#X#O###OO###o. ####O###O###O###O##O###O##O##X..##X##OO#O#O#X#",
"OXX+XoOX@ @o@XO .+#@oX @Oo XOooXO +oO@+XXXOoOX@+. #XooXX@@XX@X+XXoXo  @OoOOOoOo . OoXX + XXoX.@O@XO@OXXXX Oo +o.. OOOX@   Xo XXX",
"XX+ oOo+OXX.OXX . # @  @@ooOo@O o@oO  O@@oXX@O  .+OXXOOXXX OooOX oXoOO#@ .XO+XX.. # oOo  XX XXo@ooo@oX+O  X    .. #ooOooOoXXo +o",
"XXXoXo  Oo+XX o . #    O@ XoO XoooXX X@OXXXoXOX.. OX    OO+OoX @X OoXXOX  XXoo +. OXO@OooXo Xoo@O@o+X XO@ O@O@@ . # ooo.X@oX X@@",
"  @+XOOXXOX@@o +.+#o+oXOOXo O@OXX  XOO XX XXXX +.+# XoXXX+ OoX OoOXoooXXXOOO +X .XO@X@oo@@ XoXXo  XOXOXOooXX+@o..+OOOooX @oo OXo",
"XoXo X Xoo XO@ +.+#XXXOOOXOo+oXX XXo@@  @Xo@X@  . #O@OoXo . OXXXOOOX XXXO Xo@ o . #  oXXXoX XOOXO OOO XX@+ + XO .+O@O@@XXOoX  OX",
"ooOoX@XO@@ oXOX.. # oo@OXXX+XoXX  Xo@@@XOXoO X@ . #X@XX X@OXXX+XooX+X XXX OOooO.. #X XoXo oXX XXXX@XooX  X oO@o . OXoXXOo@X+O XX",
"+oXXX oX@X + Xo.. #X XXXooo o OoXOO@oX oOoo Xo@.. XoOo oXoo@XXXXo@o  OXXX+OX  X . OoOoX  o @ XO@  +X+oX@#OX @Xo . #@oXXoXXo  oX ",
" @OX@ooX@@X+#Xo..+#oXO+ X @OoX#oXOoO o  .X +ooo..+Oo  XOo+oXXXoX oX@O@XOoX@XOX  . OOoo X XXX OOXXoo  XXooO X  @ . #@o Xo+ oXOXXX",
"#X XX @oXXoo@X  ..XXX@ooo OXXXOOXO@OXo OOO@+oXX .+OX@oXOOXOXooOoOooXo +oooo ooX+. Ooo XX oXooX+OXO@OOO @o oXooO.. O+ ooooXX@@OXO",
"Oo X+ XOO@XXXXX .@#O O OoXOo +oXXO OOXX XXOo@XX . OX+O oX   @@ooX Ooo   O X XX ..+#OOOOOO#oO@X@XOOoXoo+oooXo oO..+Oo@O @@XoXoXo@",
"oXoO oX OoXo@+O+. #X O  O X X@o XoO oX XXo O  @+. #+@XX o @oO o+ @OXo XoX  Oooo . #oXO XoOXXXX OXooOooo@@ OOX+@+.+OX@X @Xo XX Xo",
"O@ OoX  o@o Xo  . O  XXoo@O OXXX@ooo@XXoo     @.. #@O@+Xo@+@OoXXXoXo@ XoX OOOoX+. OO XXOO X@@OXOXO o@X XO  @o@ .. OXXX+XX oX@OXX",
"+ .  ++. .+ @+  ..X+.X +@+..  . ++ ++.. + ... +..+X . +.+ ++.++ ++..+.   +.   ++.. +.+ ++..+ .+  +.  + + ..... ...X.+..++.+.   +",
".................................................................................+..............................................",
". X +++ o++ +  ++ ++ X +   +  +..    +   +o  X    +   ++ ++++ X..++   +++ +   +   +    + .++   ..  + + ++@++++  . +    ++  + +@+",
". ##O#####O##X####O#O######O###X. #O#O#O########O######O#OX##O#X. ##O#####O###O#OOO##OOOOX##O#Oo.+###X#o##O#OOO##O###O#O#OO#####",
". XX.X+XX@oXXXoXX XXOoO@oXXo Xo+. O XX O@@@O++@OX Oo O@XXXOo@XX..+#OOXXX o@OXOO@X@oOX OXXX#XX  ..X#oX O XX XX  XoOXXX XOXXooXXX ",
". #XXXO +@+ oo oo o XX o @oXX o..+OooOXXoXXoO XOX XXO@oOXXO@oOo . #@ oo@OOoX+Oo@o@@XXXX  X@oO+O+.+#  @O.Xo XX oo +o   XXXoX @ O@",
".+#o Oo XO+o XoX  o@Oo X X@OXOX . Oo@OX+ooXXX @@ooXXX. @@ OXo X . #Oo@XXoXXX OX@oXoo O@oo+XOXX  . OXX X ooXoooooXo@X#oX@@  XO.X@",
". #X@X@XXOO@X@o Oo XOXOo  oXX X+. Ooo+X@@@O Xooo XooXX oO XXXo. . OOoXXXX  X XXXXXXoXOo@@@@  X +. OXXX XOXX @o OOoXXXoo#o + o@OO",
". O @@ooO@OXX+XXXo@#oOoooOO XOX+.+#X      OXXO@XX  XooXXXXX   X..+#XXXOO@o XoOoXoXo@ oo@ +oooo++.@#OO oXX@XooO @o XO@o OoX+O@ooX",
"+ o@OOXXX XXoX oOoX@XOOXXoXXooX..+#XXoX#o OX XoooOoOO@Xo@o@O@XO+.+#o+o@Xo  #oooXOX@oOXXOX oOoX@+. #o Oo o@+ Xo+OoXOoX@X X@X@oXXo",
". #@@X X XOOXX O.XXOoo  XXOoX.@o. #  OXO XXX Xoo XOooOOXoXXooOX+. #@oXX@XXXOOoXO@OXX XoXXoOX@ @..+XX X@  @   XOX oX+OOXX+oOo XO@",
". #XX X XoXOoo oXXX.Xo X  O   X+. OXX@oXX+@@+X@oX OXOXX X ooo X .+#oXooO+XXOo XOX+X Oo@o X@@oX@+.+# OOoo OO @O@  o@@X@@ooXX @O@X",
".X# XOo o@@O XX@oX#O @XX@X@@O X+. O@XXXOoXo@.oo OX o XX   OoooX . OOXXOXXOXXoX@+oO oooOOXoOOOoX+.+# #O  OXOoOXXXX#ooo oo . O ooo",
". #oO@oO@o  XXoO  OoX OX@oooXXX..+oX@oXXo  XXOo@o  o ooXXXOOooX .+OoX@ X@oOOO@o X@oX XXoOo@XOo  .X#XoXXXOXXOOoX X@oo + @oOXo OOo",
". #XXo@OXX O@oXX XOO  OO@ooOoXo+. O OOX XXooooooooo##OoXo@XXXoo+.+#XXOoOX+.XXXX XXoX@@X Xooo @o . #@@XOo X+ooXoX X@@X OO@o@oXoOX",
".+#@oo X oOXXX@OOXOoXo O@   @Oo . # X@  oX@XoXO XXOOoOXX+oX Xo ..+#+oooXXX.OXooXoXXoooXO OX+o   . # o XXoXo@oX  oOX@OOooXXO@X o ",
".   + . + ++.+ +  + ++.++ . +   ..X  ++ .+.@+.. . +  ++.  .   +.. X+.. . +    ..    +..+ .+...+...o.. ++++. . + +  .+.. .. .. ++",
"................................................................................................................................",
" X   o +   +   .. + ++   + ++  ++ o ++ .++  + X.. o+  +   X+X++++  +    + +   ++.      X  +++ +    + .+ XXX+++ ...  ++  Xo +X++ ",
"###O###O#####OOO. ##O####O###OO##O###O##O###O##X. ##########O#O#OOO###O#ooO####o. #O#O##OOX#OO####O#OOO#######OO. ###O#O########",
"oO X#   Xo@ooXX+. #@@XoOo @@oX OO O oXO oO  oXo .X#o OooXOoXX XX oOOX OOXo@XXO@+. #O@ooo.Xo  XOoXOoXOoooOXoXXOO .+#oX  XX@X@O  X",
"o OXOOOo+oo@o@o..+#o oOX O@X XoX@O@o   @OXX X o . #X Oo XoXX@oOXXOoO+XOXOXo  oo . OOXXX O#@oXO X oXXo@@+@OooXoO+. # X O X+OXXXXX",
"oOXooXo@@@@X Xo..X# X OX+ oo  X@OoXX  oOo XXXOo+.+OXXOoOXo  XoOXX@ O@oX ooOX oO .+o@ XX ooo  Xo  ooXo@oO+ O oXO.. X@XO XO@@OXXXO",
"  OXXX@OOXooOO@+. #   #oX@XoXXOO@X  XX@XOX+XX  ..+#XoO OXXXo+ooXXX@XX XoXO o@ o..+#@O XXXX   OOXXXOOoO X XoXo@O+. #ooXOO o ooXO@",
"ooooXOX  O X o ..+#XXX@oo@@XX@XoX Xo@oOoo  @oX .. OoXoXXoXoO@@ XooXOooo@oOXoOOX . #XooOXoOo OXOX OO@OX OXo@XXoX . #@OoooOXOXOOXo",
"oXXX+X  oO XXO ..X# ooO XOoXo+ooXoOooO XX o XXX+. OXXooooXX@oo X@@o@oX X XX@X   .X#@+@+oXoX XO@@XOoooOXXO OXXOX.. #OXXXX@ooo  XX",
"o X o@  o@ooX@o.. O@@oXX@++OXoX@X @OXX @X oOXXo.. #XoOoo OOXOoXOO OoXXXooX@oXXX.. #XoO X@o@@#@OooOOoX XXoXX X+X..X#X XOXo@ @o   ",
"O X  OOo@oX@ Xo+. O @oOOoooXXOXXoXOX XOX@o.OXOo .+#XOX@o OoOOXOooO  XOoXoXXX X  . OXO@X@@@XoO@XXXXXXXXXXX. X X .. #XXooo@oOoo oO",
"o oooXXO@ooo XX.. #OooOXXo @Xo XOXoX@oXO@oX @Xo .+OOOoooo@+o@XoXo@@X oX@OX OXX ..+#  XXXXOXXXXX @oX XXXo OOooO  .+O oooXXOo @ XO",
"OXOoXX  XXO.XX  . O @oXOoXX+o@@@XOOXX@+ X XXOXX .+OoOooX@X  X+XX  X@@ XXXooOOXX .+#XXOXXXo XO@o+ OXo+O+Xo OOXXo.. #X XXXoX XoXXX",
"XOOoXX XXXoOO ...+OOX+ o+O@@o  X@@XXXoX o@ooXoo . O   OXoo+OO  o@XXoO #OXO@XOXX . # ooXXXXXoXX+  ooO@@OXXX X+ X+. # XO O o@OX@@X",
"@XXXoXo@XXo@OXX . OXOoo . OO Xo@X@X oXX+@@oO@Xo .+OXXoOo@OXooOO@X@XX.XXX XXXoX  .+OOXXXOo@OXX OOX XXoOXOOO X@Oo.. #O@X@Xo+XXX@ @",
" .. + +  .+..+++..X.+.  +X... +.++..  ++   ++.+..+  +.+. . .. +  + ...+.   +++++. o +++   . ...+..+.++++   . +....X+  .+++.     ",
"................................................................................................................................",
".  +++ +   +++ +    +  ++  +++ +.  ++ X +      . ++++ +++ +  ++..  +++@++++ +@      + +   + ++X...  +  +++ +.  +      ++ X    XX",
". ##OO########OOO#####O#######OX.X##X###OO#O###Xo#O#O#O#XOOO###O. O##O######O#OO@#####O#O#OO#O#o. OO#O###O#OOO#OO#O###O#O##OO###",
". # XX O@@@@oXoOX Xo X XOXooO@O.. #oXOoX X XXooO+oO o@ooo@OXOoX+. #oOOXOXo XXX@  @@oo@o X@ XoX .. OOXOXoXO@O@#@@@oOO@XXoX   XXXO",
". #@OXXoXoXooXoXXX OXXXXoXo  oo.. O XOX  X@OOo @@oXoXXoo+XXXXXX+. #O@OXOX X OOoXOX ooXoOo OoXXX . #XoO@oo@oXOXo+X@ooX X@ X#X  @X",
".+#@oo+Oo oX XOX@oXoo @Xo@+oOOX.. #X OXX  ooOO XOo@X O.X .Xoo X+. OXXo X@OXOOoXoo++ o  Xo XOX@o.. #X XXXX@X XX + Xo.XXXX XooO Oo",
"+ O oX@@XoOO+O Xo X oXXXOO  OOo+. #+ @@O@Ooo oXXooXXXXoXXX+@O   . #oOOX+o+XXXXX X@@OXOX o OoOXX .oOXX  OXX  oOXo@X  X@XOXo@XXXXX",
". OOO  XXXooOo@XX +XXXOXOOX oo+ .X#XO#oXX o@  oO  O@X OoOoX@OXO .+#O@XOo@. oO@XOo @@o@OoOXO o o.. # OOOOoX@OXX @oXXXO+X OoOX o X",
". #oo OoXoO@+ XXO@@XOoOOX@oOX o+. #ooooo oX Xo@@oXXXOOXXX OOXXo+.+#OOXX@X #oX Xo OXXXoOOoo   oo..@OX@@oX  oo@@XO oXooO@XXXXXXX X",
".+#o  XooXo X XO    OOOX@ XoX X.. O  Xo XXooOoXoX X@oXOo@@XooXo+.+O X XXoXOoXXXO XoX XXXXX @O @+.X#@@O.. O@XoXOOXXXo@Oooo@oo@@o ",
".X#OX OX.   X@@oX X oX@ oX X  X . O  XoXoX@XXX o@.XoX OOXOO+X@o+. #XXXOXoXXXOX@@oOOX@ @@+XX@oXO+. #OX XXO X XX XOXOo@@O XXOXO@OO",
". #Xo@X  +@XOOX@ OOoooX@  X#OOX .+#OXOOXoX@@o XXXO+#O++OX+oXXO@ . #OOXO X@X+OX Oo@ XXOX@@o@+XX@ . #@O.O@Oo @oo X XXoX X@XoXOoXo@",
". OX@o +X#oO@XO  XXXoXX@@oo@ooo..+OXXo+Xoooo OX@OOX@XO@@XO    X .+OoXOXXXoooooXo  OOooXXX @OXXO . #OX OoXoOOooXXXOOoXX OXoo XXoo",
". #o+OXX@@o XXX+X X oXOXXO@oXX .. # oOoXX+ ooXOXXOXXXOOXXOXo@XO . #XXX  O@XXOOXooXoOOOXoXXXO@oo+. #o  XX O XXX X oXoo+ oXoX OX@o",
". O@X Oo@o o @o XXooOoOoXX  XX@+. #XOXoOoX ooX Xo   @XOXOoXoXXo+.+X.O@ X@o +Xooo@Oo XXOXo@OXOX .. # o XXXoO  XOXoX@oX Xo+XoOO@o ",
"+. . ..++.+  + .++.+. .++ .+.. +.   . ++ +  . .++ .  +   .  +. +.. . ...  + +   ++  +  +.+  .+.+. X. .   + .. + ++ . + +       .",
"................................................................................................................................",
"+ . ++ +  ++  +.. ++   +  + +++     +       + +..   @++    +   +++X+  @ ++  + +..  ++ + .+++ +++  +         + +..++   +XX++o++X ",
"##XO#OO#####X##O. ##OOO##O#OOOOO##O####O####OO#o.+##O######OO##O#O########O#OO#@.+#O##O#OO#OOO##O##OO#O########@.+#O######XOO###",
"oXOOXX OXo@ O  .. OoXXoOXXo    XOX o@oo @oXXXOo . #oOXOXoOoXoO@XoXOOoO@Oo@ @o O .X#oOoO@XXO ooX XO@XXoO@@oXX@oo+.+Ooo@@OXX  X oO",
"XoO  XOOO XX.Xo . OO  OX o@ OOXX@XOOXo XXOXo    .+#OooXOXoX+  oX@OXOoo  OO.O+oO+.+# X  oX@XooooX Xo@ X OoO+o X .. OoOXXXo oOOXoX",
"o@X XoOooX @X o+.X#O oX@ O@XXOoO   @O Xoo X@+oO.. #XoXXoo    O@ @+ XXXXO@OooX X .+OOoo XXX@o@O    oXXXoOoXoOXXX+. #o X+.oXOX  XO",
"OooXOXXXX @OoOo@.+#XXX XXXXXOoXOXOoXoo XXX o Oo . #X @X oXXXoXX@o +OOXXoXX @X@o.. O Xo OO+X +oOo XOoO XX @@ X@O .+O  OX+ X@@XXXX",
"XXX.X@OoXOXooOO .+#XX @ oOOXXoXOoO@o  oXXoO X@o..+OooXXOX+X@O o@X XOoXO  XX@oO@ . # OXXOoOXXoXo+XOo oXXooXoX  X . #  +@oo XXOXoX",
" @oXOoXX@XX XoX..XOXXXOXoo  X ooXOXX  ooO XXoOX .+OXXo  @ @XO X@oXoXOoXXOooXX X .+OOoXXoXo oOO oOO@+ XXoOX@ OoX .+#@O#@XOO OO@OO",
" o+OOo  XXoOXX@+.+#o o oo XOXXXX O  oXOOX oXO@o+.+OO@OOXXXoXXXOXoXX X+XoO@o  Oo+. #O+XXo XoXXoXXoXXoXOXXo @XoXo+. # oOXXOXo o@XX",
"XOXOXX oooooXOX .+O@XXX @ XOX OX  @Oo@O@  @+ @o+. #XX+X #O XXOo@O XXX+ XXoo XOX+. #oX XO OX XoXO OX oX@oXOXo@@O . #XXXOo@oXXXXX@",
"@@XoXX oOO@o@Oo .+OX.o@o XoXXX@OoX@XX@oXO X.X@ .. OX+ @XOOooXXoX oXOoo  OX@o#OX.. #oXXooooOX++X OX X@o@ o@XXX@o . #oo@oXoXXOo@oO",
"oOXXXXoX@o@@@ X.. #OOXX XX XXO@oXoooXOXoo OoOXo . o@@#OOX@OXoX XXXO@oXOOO X+@Xo.. oXoXX+ XXXX@@XOOo@X@oXOooXXoO..+#XXX  XX +o@ o",
"o XXoo+XOoOoX. .. OOo@oXOXO@X@ X  X OOoX OoX+@@.. #@OOooO XXX X@X@ooOXXX XXXoOo+. OO@@ oXXo  XXX+XOoX oXO@XoXo .. OOXoOX XOXOO X",
"X OOoOX O@Xoo@O+. #@XooXOXX  + X X+@XX++XX@oX@o .+#X ooOXXoo XXoo@X+X +Xo@X Xo+.. #X@ XoO@O  OXO O o@@ Oo@+oOXo..+# @O oXoo@XXOo",
".+ .... + + .  ...O.  +  .  ... ..+ ... ..++......o  +... ++..+  ...  . + ..+++...o ++.+...  . +          ...+.+..  .....++....+",
".................................................+..............................................................................",
".+ +++    +.++@+ +X + +X     + +.  +++  X+ +  X+ ++X+ + o++  + ..  @+  o+X +   +++    +  + + + ..+    ++ +    + @+    + +     + ",
".X########OXO#O#O###O#######OO# .+###OO#O##O####O#O#########OOOX. #O#OO#####O#OO##O#O######OOO#X. #O######XXO###O#########O##O##",
".+#@  XOX XXOoX  oO@XoX XXXo++o..X#@X  XX OXXO@  oX. X@oO+o  oo+.+# X OoXX@oOOO+XO oXoo@XX  O+O . OXXOXX oO@XOO@ XOOo+oXOoXXXO@@",
".+#Xo OoX  X OX XoXX.X oXXXX @o+.+#XXoXO+OO@oXooX@ O X XXXXXXo@ . #OXX XX XXX@@oX@oX X@XoXoo@X +.+##@oXXXoX@@O+o X@@+ X XOX Xo+X",
". #X OO@oXOX o @@XXXXOXOOXOOXXX .+O OXOoX@ o@XOOoXXoXOXOOX+OXO  .XOXo@XoX  XXOXXXXXOOXO XooXo X+.+#oXXXXo@o@X+O@o ooX O Xo+oOXoo",
". #ooXoOo X  Xo XoXXOooXXXXo@oX+. OXOO+XoO o  o@O X   XXXX @X X.. #@+XOo@XO#Oooo@XO@ oooXoXX oo.. O X@Xo@Oo o O O OoXXXXOoo.@XoX",
". # XXOOOXX  X@oXOX X oX o@OOXX..+OOoOXX  X  oooooXOoo  o  oOX  . Oo@ O+   Oo@@o oo   oXXX XXO@+. OXoXX@ X @oXO  XoOX XOoXoXXX X",
".+#XXX+XX  O+oo+ X XX  OOoXoOXX.. #o oX XXOoO o@ @o @oo@ooOO X@+. Oo   X +OOO@o+X + oOoo+XoOXX@+.+#Oo+ O O XoXXo Xo+X oo@ XXooO ",
". #OO@OXX  Xo@@  XXX@X#OXXo  XX . O oX OXX@o@XO o @XO OOooo@Ooo+. #ooXXXo@@OooXO OXOOXXoX oOXOO .o#O+@@ . Xo+ XXXX@XoXOX+Xo@Xo X",
"+ OX@X@OX@@XOoXXoO+oXXXoXXoOXOo .+#XXo@ Xo@oOOX@Xoo.XXoXXX OX+X .@OOXoXX@o+OOX o@@X X   X@OoXX ..+#XX@ XOOooOoX   XoXXO+ oOoXoXX",
".+OoooOOXo@OXXX@ Xoo XXoXXo Xo++.+OX @X  O@@O@XOooXXO  OoXOXO  ..+#XO XOXo  oX oXXoX@ +oOoX +Xo .+# +OOo+oo oOoO@ooX XX.XoXOX@@O",
".+#ooo@@X XoXXOoOOo XOO@OOoXoo@ . #+@@oo OOoXo@Xo@OXoXXO@ XoXoo .XO OooXoO XOOX@ XXoXOo@Oo   o +.XOO#oOX Xo+ OO@Oo@oo@XXO OX    ",
"+ #@@+XXo@OXXXOX O@oXOoXX@o.oX@ . O@@o@o XO @oX O@XO XooXo XooX .@# X@.X@X @XXoo X+X o@XXOXOO#X . #OoX  Xo@X+XXOo@Xo@oo ooXXoXOX",
". #  X ooXOXXooXo XXXX oo@o X  .. o@X@.Ooo@o  XXOXOooX XO@@XX+O.. #@XoOXO@ +@ XO ooXXOOXooOO oo.. #oX OXoo @o oXO@  o@oXXX O@O@O",
". O...  ..+.  . +.  .   +  +++. . o+++.    . .++. . ..+ ++ .+  ... .. . ++  + ++.++ ++. +..+. ....X .+       .++  +  . . . ++  .",
"................................................................................................................................",
" +   ++ X++  X .. +      + +++++. +    +    ++++..  +++  +. ++ +++ + ++ + +o   +. ++  ++   + o@++  +X+ @       ..  .  X+o   X + ",
"#OOOO##O##OOO##@.X#####O###OO##O#OOXO#OOOX#O##Xo. OO##OOO#O#########OO#O###O##O@.+O#O##O#O#O#O##O#OO#####O#O##oX. #OO#####OO####",
"@XXOXOO +Xo +X  .X#X.OoXoXXX OOoooo Oo+oXX  XO@.. OO#oX  OO@XXo @oXXoXXo+O    o.. #o  X XX@OXo+Oo XOXo oO Xo@@X+.+XOoo+oXo++oX  ",
"  XoXOoXX@X   o+. O  XXooXXoXO+XX oXOoXo ooX o@+. #XXX oo@XXXoOoXXXXoXXX X  X+ .. #oOOX@o+@XXOooo OOXO OX@OOOX  . OO@XX OXoooo X",
"oX   XX  +XOXOo .+# +Oo   O@OXO oo  OO @oo@oX X..+XXXo XoooXOooOXoOoX@@@ X OOoX .+#XXXXoO o @@  XXX@.oXXoX @OoO .+#XoXoXXXoX @Xo",
"X XoooO  OX OOO .X#O@@  X oXo  oo@o O@XX   @XoX@.+Oo #X o X@@@Xo@XoX @ XOX  ooX@. #  oXooX OXOO@Oo+O XoXXXXXoOX .X# oXX@oO @OOoO",
" oXX@X@oX@OXOoX . #Oo@ OOXOXOXXXoo XOXoX XoXX o .+#X@OOOoXOOO@   XO Xo@  X XXX  . #XXXOXX OOOXXXOXXXXX  OOOXXXX+.+# @o OoX OoXXO",
"XOOX@oOX XXoXOX . O O@@@OX XOoXo@X +O+X  OX  Xo . O   XO+O OO@X  X@XXXoOO@@OoOO+.+#o  OXXX   XXX+@O Oo OXO@oo@X . #@X+ XoXXoooXX",
"X@OoO  X XO+oO@+. #oX@XXOXXOoX Xooo @@XXOo  ooo+. OX oXXXo oo@@XXXo XX Oo oXoOX..+#X  OOoXOX O@X@OOXOo @OXXoooX ..OXo.ooXX@@O Oo",
"@oX o@X O@oXoX  . O @XXXXOOooX OX @ OO@ ooXXX o...OXOOoX oX oXoXOXX o+o@oXXXXXX . O X XX  X@X XoOo OO@@XX oooX .. XX XXX o@O OX ",
"@ o XXoXOoXoooX+.+OOo+X@oX  XooXXX+o XXXXXO XOO+. o#oXXoXOXOO XXXXX X@@oX@OX XO+.+#@+o#oXO@X  #OooX@OOo  o XXXX .+#XXXXXooo XOOo",
"X  O+X.+X XooXX . # O    X OOOX@Xoo@oOXXoO@O@ @ .+#@ oXXOXX@@o+  o oooX+ ooXXoX+.X#+o@ XXXOoXo@@ @oX  XoOX XoXX.. #ooX+oXOXXXXXX",
" OXOo@XO@XXo XX.. #XX XXoOOOXOX ooXOOo oX X XXo..+#O   XoO+@oOOo#Xo O+ @ooX O@X.. #  o XXXXXX@OOX@O oX+@XXXXO@X+. O XOoo  +o O@o",
"X@XXo @OoXXoOOo@.+#+@OXX@oOOO OoOX OoXOXoXX+Ooo..+#X  OXO OoXXX  X + XoOo X O X+.+#OX@X X X XXX.XX XOoo@oX+ XoX+. OOOXX +o  @ @@",
"X@  oO ooOoX@XX+. #Xo #XXoXoX Xo OOoXo Oo  XXoO .o#  X OO XXoXXXoOX XOoXXX+OXo@ .+OOOX  OXX XXOX XX o@++.X X#X+..+#XXoXXoOoXXXOO"
};
